HIERARCHY
ROOT Hips
{
 OFFSET 0.000000 0.000000 0.000000
 CHANNELS 6 Xposition Yposition Zposition Yrotation Xrotation Zrotation
 JOINT Chest
 {
  OFFSET 0.000000 10.354800 0.006500
  CHANNELS 3 Yrotation Xrotation Zrotation
  JOINT Chest2
  {
   OFFSET 0.000000 10.435800 -0.013200
   CHANNELS 3 Yrotation Xrotation Zrotation
   JOINT Chest3
   {
    OFFSET 0.000000 10.393700 0.000000
    CHANNELS 3 Yrotation Xrotation Zrotation
    JOINT Chest4
    {
     OFFSET 0.000000 10.383100 0.000000
     CHANNELS 3 Yrotation Xrotation Zrotation
     JOINT Neck
     {
      OFFSET 0.000000 15.694000 0.000000
      CHANNELS 3 Yrotation Xrotation Zrotation
      JOINT Head
      {
       OFFSET 0.000000 9.711000 -0.028000
       CHANNELS 3 Yrotation Xrotation Zrotation
       End Site
       {
        OFFSET 0.000000 18.578700 -0.014800
       }
      }
     }
     JOINT RightCollar
     {
      OFFSET -3.157200 10.367500 0.000000
      CHANNELS 3 Yrotation Xrotation Zrotation
      JOINT RightShoulder
      {
       OFFSET -14.482500 0.000000 0.000000
       CHANNELS 3 Yrotation Xrotation Zrotation
       JOINT RightElbow
       {
        OFFSET 0.000000 -31.707800 0.000000
        CHANNELS 3 Yrotation Xrotation Zrotation
        JOINT RightWrist
        {
         OFFSET 0.000000 -25.659300 0.000000
         CHANNELS 3 Yrotation Xrotation Zrotation
         End Site
         {
          OFFSET 0.000000 -18.994300 0.000000
         }
        }
       }
      }
     }
     JOINT LeftCollar
     {
      OFFSET 3.157200 10.367500 0.000000
      CHANNELS 3 Yrotation Xrotation Zrotation
      JOINT LeftShoulder
      {
       OFFSET 14.482500 0.000000 0.000000
       CHANNELS 3 Yrotation Xrotation Zrotation
       JOINT LeftElbow
       {
        OFFSET 0.000000 -31.707800 0.000000
        CHANNELS 3 Yrotation Xrotation Zrotation
        JOINT LeftWrist
        {
         OFFSET 0.000000 -25.659300 0.000000
         CHANNELS 3 Yrotation Xrotation Zrotation
         End Site
         {
          OFFSET 0.000000 -18.994300 0.000000
         }
        }
       }
      }
     }
    }
   }
  }
 }
 JOINT RightHip
 {
  OFFSET -8.365600 -0.032100 -0.003200
  CHANNELS 3 Yrotation Xrotation Zrotation
  JOINT RightKnee
  {
   OFFSET 0.000000 -43.980000 0.003100
   CHANNELS 3 Yrotation Xrotation Zrotation
   JOINT RightAnkle
   {
    OFFSET 0.000000 -42.882800 0.005200
    CHANNELS 3 Yrotation Xrotation Zrotation
    JOINT RightToe
    {
     OFFSET 0.000000 -4.915500 10.826300
     CHANNELS 3 Yrotation Xrotation Zrotation
     End Site
     {
      OFFSET 0.000000 -1.517500 6.175900
     }
    }
   }
  }
 }
 JOINT LeftHip
 {
  OFFSET 8.365600 -0.032100 -0.003200
  CHANNELS 3 Yrotation Xrotation Zrotation
  JOINT LeftKnee
  {
   OFFSET 0.000000 -43.980000 0.003100
   CHANNELS 3 Yrotation Xrotation Zrotation
   JOINT LeftAnkle
   {
    OFFSET 0.000000 -42.882800 0.005200
    CHANNELS 3 Yrotation Xrotation Zrotation
    JOINT LeftToe
    {
     OFFSET 0.000000 -4.915500 10.826300
     CHANNELS 3 Yrotation Xrotation Zrotation
     End Site
     {
      OFFSET 0.000000 -1.517500 6.175900
     }
    }
   }
  }
 }
}
MOTION
Frames: 15
Frame Time: 0.008333
-7.094092 127.413487 14.639748 -179.370907 -42.836776 -5.757643 3.842823 17.411403 0.636510 0.406716 1.904606 0.011585 0.675937 3.162606 0.026715 3.337466 15.233506 0.485387 -1.524209 25.465158 -3.028617 -0.970374 2.003484 -2.953476 7.534321 1.339152 -2.132747 30.530307 -33.994205 -22.666319 -148.357316 -46.605893 179.802435 -19.124845 -30.123488 -24.304441 -3.739434 11.253058 4.918332 -25.608870 -44.613938 0.987615 169.868039 -47.682976 171.347184 6.571236 -5.438049 36.277516 4.290751 -36.692863 2.377699 -143.335081 79.491566 -137.802660 2.263053 -19.227884 2.512402 -0.000689 0.005899 -0.000313 -12.121862 -35.131063 9.303293 149.511168 78.577619 143.158971 -2.338800 -19.861008 -0.132373 0.000063 0.002934 0.000029
-7.096506 127.415616 14.654572 -179.313306 -42.943322 -5.770446 3.881797 17.467972 0.617231 0.412871 1.918154 0.009330 0.685896 3.184089 0.023060 3.371498 15.276240 0.471611 -1.553092 25.514200 -3.008365 -1.006827 2.063933 -2.925410 7.486444 1.352484 -2.136885 30.449751 -33.975093 -22.647558 -148.433118 -46.548768 179.847942 -19.106354 -29.971628 -24.257407 -3.742709 11.324401 4.894553 -25.762934 -44.575953 1.027724 170.033913 -47.654996 171.299839 6.555339 -5.353120 36.324216 4.287737 -36.560186 2.305477 -143.353295 79.506980 -137.795304 2.283034 -19.229545 2.508281 -0.002860 0.005029 -0.001298 -12.099159 -35.042546 9.220028 149.395954 78.568441 143.076604 -2.323642 -19.847905 -0.147492 -0.000506 0.002962 -0.000230
-7.099143 127.417760 14.669567 -179.252728 -43.051358 -5.782415 3.919089 17.528171 0.596899 0.418624 1.932025 0.006787 0.695042 3.206082 0.018976 3.401168 15.320419 0.455473 -1.584430 25.562587 -2.989634 -1.045665 2.123749 -2.898491 7.438952 1.361523 -2.133741 30.384598 -33.958849 -22.633411 -148.508887 -46.538806 179.914025 -19.101615 -29.881273 -24.222625 -3.760982 11.401405 4.871615 -25.907779 -44.541174 1.048372 170.232957 -47.627536 171.244056 6.525212 -5.264705 36.392281 4.286151 -36.429110 2.232648 -143.360810 79.516155 -137.780154 2.306353 -19.227924 2.505888 -0.004796 0.002930 -0.002177 -12.083219 -34.947356 9.143320 149.297327 78.565101 142.998155 -2.289607 -19.836792 -0.166722 0.000997 0.005800 0.000453
-7.100024 127.419817 14.684892 -179.196053 -43.157529 -5.801143 3.958158 17.589708 0.585067 0.423899 1.945858 0.004245 0.703466 3.227959 0.014872 3.427121 15.364670 0.438980 -1.615524 25.609513 -2.972885 -1.083684 2.181873 -2.873744 7.386720 1.353766 -2.110619 30.354681 -33.928149 -22.634275 -148.576027 -46.533576 179.973048 -19.104155 -29.807509 -24.191420 -3.795001 11.456017 4.870838 -26.006966 -44.504618 1.002569 170.434319 -47.605699 171.187656 6.486575 -5.181994 36.489404 4.272592 -36.308520 2.189182 -143.292267 79.511817 -137.689287 2.343235 -19.205983 2.499940 0.006253 0.000377 0.002839 -12.079809 -34.848073 9.090281 149.268904 78.566489 142.979006 -2.273581 -19.834329 -0.174287 -0.002715 0.010561 -0.001233
-7.101651 127.420694 14.701167 -179.136407 -43.252368 -5.818651 3.986492 17.646316 0.566490 0.413602 1.965173 0.008171 0.725796 3.244193 0.004435 3.449399 15.408746 0.424298 -1.644042 25.654492 -2.958458 -1.118415 2.237612 -2.852059 7.318508 1.316729 -2.058472 30.378326 -33.868721 -22.656447 -148.589990 -46.577008 -179.962811 -19.062572 -29.803081 -24.202360 -3.822354 11.503438 4.869559 -26.107105 -44.478536 0.934697 170.619627 -47.595487 171.131584 6.444848 -5.113184 36.612681 4.258797 -36.199847 2.146102 -143.286193 79.523579 -137.669474 2.350748 -19.189606 2.497381 0.010586 -0.002155 0.004806 -12.068849 -34.768499 9.031514 149.117051 78.559932 142.854288 -2.298569 -19.816990 -0.183245 -0.007163 0.011384 -0.003253
-7.104434 127.420296 14.718256 -179.068527 -43.333731 -5.837357 3.999245 17.696076 0.539812 0.373860 1.995037 0.024669 0.775382 3.248752 -0.018888 3.468107 15.451258 0.411907 -1.670151 25.697619 -2.945511 -1.150223 2.291065 -2.832589 7.350217 1.344444 -2.097944 30.289985 -33.916573 -22.619699 -148.630096 -46.587557 -179.913302 -19.057912 -29.763006 -24.203310 -3.845177 11.541486 4.868839 -26.194524 -44.460078 0.846460 170.770024 -47.599218 171.083965 6.407032 -5.066260 36.753327 4.246443 -36.102565 2.073156 -143.407973 79.553256 -137.773404 2.359509 -19.175659 2.494886 -0.000375 -0.003432 -0.000170 -12.055717 -34.711723 8.980451 148.847850 78.547852 142.621168 -2.340902 -19.775154 -0.200158 -0.003106 0.006490 -0.001411
-7.105663 127.420898 14.733974 -179.016098 -43.419329 -5.857084 4.021108 17.751715 0.523752 0.382741 2.006470 0.022390 0.748182 3.269868 -0.006756 3.476765 15.471817 0.406217 -1.676731 25.757649 -2.966112 -1.178290 2.340962 -2.814142 7.382935 1.378157 -2.129443 30.247206 -33.948607 -22.602322 -148.691814 -46.577859 -179.876920 -19.104473 -29.692967 -24.187223 -3.842772 11.586639 4.836305 -26.257521 -44.442177 0.745209 170.872227 -47.612003 171.050526 6.383538 -5.043236 36.899384 4.219868 -36.010085 2.052066 -143.404263 79.567048 -137.765126 2.362506 -19.153414 2.486520 0.001531 -0.005621 0.000695 -12.058846 -34.633509 8.942065 148.655648 78.545162 142.440767 -2.321166 -19.754901 -0.227539 -0.005219 0.010428 -0.002370
-7.104341 127.420803 14.750153 -178.973410 -43.493996 -5.887664 4.025812 17.812370 0.527780 0.414073 2.000552 0.008721 0.763972 3.291206 -0.013210 3.496222 15.520387 0.395616 -1.702050 25.783487 -2.936234 -1.200148 2.384955 -2.797523 7.359537 1.367169 -2.107302 30.200654 -33.994675 -22.589827 -148.654656 -46.607557 -179.870491 -19.077534 -29.700675 -24.207384 -3.878363 11.590212 4.850126 -26.297634 -44.420629 0.641472 170.918146 -47.626033 171.036000 6.371287 -5.041028 37.042272 4.186818 -35.932646 2.058968 -143.453362 79.623769 -137.804957 2.326994 -19.108456 2.472921 0.003995 -0.008370 0.001814 -12.068689 -34.568893 8.944504 148.596763 78.550299 142.393178 -2.320444 -19.733822 -0.242632 -0.006334 0.010525 -0.002876
-7.102768 127.419685 14.766780 -178.934710 -43.556042 -5.920694 4.065255 17.839290 0.533749 0.454830 2.001448 -0.008191 0.735145 3.327784 0.001869 3.513777 15.567164 0.388701 -1.719930 25.801517 -2.910676 -1.213383 2.420026 -2.784510 7.341623 1.357739 -2.089240 30.256241 -33.960843 -22.571550 -148.797785 -46.638216 -179.766586 -19.051746 -29.707457 -24.218224 -3.914325 11.579653 4.863734 -26.317582 -44.396947 0.541484 170.909003 -47.638089 171.042087 6.364527 -5.060832 37.180103 4.148456 -35.868501 2.075916 -143.443840 79.654383 -137.796292 2.321707 -19.080824 2.464554 0.001502 -0.006868 0.000682 -12.115184 -34.515787 9.004464 148.800115 78.570383 142.575748 -2.338662 -19.717678 -0.240678 0.001666 0.007343 0.000756
-7.105015 127.414992 14.785981 -178.909136 -43.588326 -5.927562 4.090613 17.846192 0.521187 0.435975 2.020757 0.000033 0.737508 3.336680 0.001263 3.540711 15.605115 0.375517 -1.721141 25.820073 -2.903535 -1.229737 2.409886 -2.756041 7.346356 1.361090 -2.085132 30.290451 -33.953774 -22.542698 -148.899265 -46.674671 -179.685393 -19.091228 -29.637397 -24.220104 -3.935680 11.569697 4.869135 -26.321201 -44.378643 0.449381 170.859398 -47.650872 171.064221 6.364183 -5.102338 37.305494 4.119175 -35.836300 2.078032 -143.404661 79.667088 -137.770237 2.324812 -19.064439 2.460079 -0.001423 0.002263 -0.000646 -12.147622 -34.491046 9.034225 148.735606 78.591387 142.494093 -2.384742 -19.682331 -0.236960 0.002352 0.010022 0.001068
-7.106961 127.421061 14.793267 -178.821810 -43.698751 -5.985092 4.050706 17.956227 0.525612 0.472622 2.009239 -0.013474 0.713969 3.356268 0.010735 3.559870 15.640701 0.370553 -1.714472 25.828076 -2.902194 -1.245700 2.405403 -2.733268 7.347136 1.353974 -2.081209 30.328661 -33.951092 -22.507204 -148.972781 -46.720636 -179.626278 -19.075951 -29.616500 -24.228195 -3.950295 11.554975 4.877681 -26.339019 -44.377386 0.423521 170.764522 -47.666496 171.149561 6.372226 -5.156188 37.410472 4.033207 -35.719727 2.106505 -143.344725 79.701222 -137.725399 2.323644 -19.022246 2.442352 0.000838 -0.002626 0.000380 -12.215824 -34.377782 9.062192 148.681964 78.619946 142.413499 -2.442261 -19.649033 -0.236957 0.001111 0.005787 0.000504
-7.107198 127.423160 14.804289 -178.757443 -43.774410 -6.041897 4.056693 18.009580 0.544689 0.477063 2.016399 -0.014861 0.714371 3.376336 0.011369 3.550731 15.674793 0.382126 -1.700483 25.824882 -2.909505 -1.242642 2.428169 -2.737801 7.333491 1.326442 -2.078497 30.386680 -33.930750 -22.456380 -148.955028 -46.768476 -179.636602 -19.002138 -29.595477 -24.241377 -3.964790 11.528281 4.885959 -26.334208 -44.373503 0.378722 170.709659 -47.676818 171.179246 6.399010 -5.210157 37.498057 3.945269 -35.647118 2.161459 -143.186837 79.748325 -137.586973 2.305934 -18.958473 2.422656 0.003576 -0.005579 0.001624 -12.289658 -34.296544 9.124646 148.652545 78.655553 142.350950 -2.491454 -19.611288 -0.231886 0.000641 0.005500 0.000291
-7.114918 127.423384 14.815610 -178.674595 -43.835198 -6.076563 4.026766 18.052775 0.523430 0.477490 2.026989 -0.010864 0.716006 3.392297 0.009972 3.542194 15.708162 0.398166 -1.689138 25.808222 -2.921824 -1.173935 2.432788 -2.802411 7.352436 1.328198 -2.095362 30.413983 -33.945673 -22.396934 -149.009760 -46.811508 -179.590027 -18.983056 -29.575904 -24.273546 -3.972803 11.500044 4.884301 -26.256142 -44.380336 0.258075 170.689484 -47.693201 171.107624 6.436282 -5.254410 37.565449 3.861562 -35.585832 2.175953 -143.077506 79.749771 -137.511687 2.300487 -18.947617 2.415520 0.005778 -0.003522 0.002623 -12.348151 -34.238209 9.139402 148.326732 78.696043 141.974903 -2.553545 -19.528433 -0.200080 -0.009352 0.005026 -0.004246
-7.123934 127.423607 14.826049 -178.609022 -43.895494 -6.099483 4.037949 18.071408 0.509109 0.447890 2.060349 -0.000460 0.720687 3.408151 0.008499 3.522399 15.739620 0.416646 -1.690567 25.779453 -2.934786 -1.103788 2.405630 -2.866351 7.404729 1.373981 -2.108658 30.432855 -33.999168 -22.364396 -149.050652 -46.860893 -179.552413 -18.959641 -29.567761 -24.330101 -3.938293 11.450513 4.889180 -26.259239 -44.376936 0.213356 170.633772 -47.713422 171.142765 6.411370 -5.289036 37.586653 3.791107 -35.530813 2.191743 -142.900559 79.774668 -137.372964 2.286457 -18.912318 2.414683 0.014535 -0.009605 0.006599 -12.374796 -34.181874 9.120847 148.120701 78.721042 141.748639 -2.522487 -19.490558 -0.201058 -0.029746 0.015909 -0.013509
-7.119652 127.423500 14.837791 -178.551146 -43.943125 -6.198364 4.046746 18.096436 0.581266 0.442584 2.072309 0.001544 0.741841 3.420441 0.011411 3.482216 15.770176 0.433316 -1.662663 25.755514 -2.966428 -1.067641 2.354563 -2.897636 7.419551 1.362991 -2.124732 30.484593 -34.007840 -22.301515 -149.076904 -46.916554 -179.529180 -18.931044 -29.570715 -24.414795 -3.927971 11.386748 4.889335 -26.183138 -44.367342 0.136188 170.713371 -47.736204 171.063269 6.446828 -5.327259 37.591091 3.630355 -35.508157 2.346673 -142.448332 79.786596 -136.997301 2.293676 -18.844773 2.418593 0.008509 -0.017374 0.003862 -12.502751 -34.116483 9.288130 148.274633 78.773523 141.834288 -2.539012 -19.451044 -0.202619 -0.001995 0.008194 -0.000906
